<svg width="214" height="39" viewBox="0 0 214 39" fill="none" xmlns="http://www.w3.org/2000/svg">
<path d="M22.3148 1.11895C22.3148 0.938421 22.3689 0.793996 22.4772 0.685677C22.6217 0.541251 22.7841 0.469038 22.9647 0.469038H29.3013C29.4818 0.469038 29.6263 0.541251 29.7346 0.685677C29.879 0.793996 29.9512 0.938421 29.9512 1.11895V37.7306C29.9512 37.9112 29.879 38.0736 29.7346 38.2181C29.6263 38.3264 29.4818 38.3805 29.3013 38.3805H23.1813C22.8202 38.3805 22.5675 38.2361 22.4231 37.9473L8.39582 14.7671C8.32361 14.6588 8.2514 14.6227 8.17919 14.6588C8.10697 14.6588 8.07087 14.731 8.07087 14.8754L8.17919 37.7306C8.17919 37.9112 8.10697 38.0736 7.96255 38.2181C7.85423 38.3264 7.70981 38.3805 7.52927 38.3805H1.19264C1.01211 38.3805 0.849627 38.3264 0.705203 38.2181C0.596884 38.0736 0.542725 37.9112 0.542725 37.7306V1.11895C0.542725 0.938421 0.596884 0.793996 0.705203 0.685677C0.849627 0.541251 1.01211 0.469038 1.19264 0.469038H7.31264C7.6737 0.469038 7.92644 0.613463 8.07087 0.902313L22.044 23.9742C22.1162 24.0825 22.1884 24.1367 22.2606 24.1367C22.3328 24.1005 22.3689 24.0103 22.3689 23.8659L22.3148 1.11895Z" fill="#1B1F23"/>
<path d="M50.0464 38.9763C47.2302 38.9763 44.7388 38.3986 42.5725 37.2432C40.4422 36.0878 38.7813 34.4811 37.5898 32.423C36.3983 30.3289 35.8025 27.9278 35.8025 25.2198V13.6297C35.8025 10.9579 36.3983 8.59293 37.5898 6.53488C38.7813 4.47683 40.4422 2.88815 42.5725 1.76886C44.7388 0.613464 47.2302 0.0357666 50.0464 0.0357666C52.8988 0.0357666 55.3902 0.613464 57.5204 1.76886C59.6868 2.88815 61.3657 4.47683 62.5572 6.53488C63.7487 8.59293 64.3445 10.9579 64.3445 13.6297V25.2198C64.3445 27.9278 63.7487 30.3289 62.5572 32.423C61.3657 34.5172 59.6868 36.142 57.5204 37.2974C55.3902 38.4167 52.8988 38.9763 50.0464 38.9763ZM50.0464 32.423C52.0323 32.423 53.639 31.7912 54.8666 30.5274C56.0942 29.2637 56.708 27.5848 56.708 25.4906V13.5756C56.708 11.4814 56.0942 9.80249 54.8666 8.53878C53.6751 7.23895 52.0684 6.58904 50.0464 6.58904C48.0606 6.58904 46.4539 7.23895 45.2263 8.53878C44.0348 9.80249 43.439 11.4814 43.439 13.5756V25.4906C43.439 27.5848 44.0348 29.2637 45.2263 30.5274C46.4539 31.7912 48.0606 32.423 50.0464 32.423Z" fill="#1B1F23"/>
<path d="M95.9346 0.469038C96.1151 0.469038 96.2595 0.541251 96.3679 0.685677C96.5123 0.793996 96.5845 0.938421 96.5845 1.11895V6.42656C96.5845 6.60709 96.5123 6.76957 96.3679 6.914C96.2595 7.02232 96.1151 7.07647 95.9346 7.07647H86.2401C86.0595 7.07647 85.9693 7.16674 85.9693 7.34727V37.7306C85.9693 37.9112 85.8971 38.0736 85.7526 38.2181C85.6443 38.3264 85.4999 38.3805 85.3194 38.3805H78.9827C78.8022 38.3805 78.6397 38.3264 78.4953 38.2181C78.387 38.0736 78.3328 37.9112 78.3328 37.7306V7.34727C78.3328 7.16674 78.2426 7.07647 78.062 7.07647H68.6383C68.4578 7.07647 68.2953 7.02232 68.1509 6.914C68.0425 6.76957 67.9884 6.60709 67.9884 6.42656V1.11895C67.9884 0.938421 68.0425 0.793996 68.1509 0.685677C68.2953 0.541251 68.4578 0.469038 68.6383 0.469038H95.9346Z" fill="#1B1F23"/>
<path d="M127.778 6.3724C127.778 6.55293 127.706 6.71541 127.562 6.85984C127.453 6.96815 127.309 7.02231 127.128 7.02231H109.364C109.183 7.02231 109.093 7.11258 109.093 7.29311V15.6878C109.093 15.8683 109.183 15.9586 109.364 15.9586H121.008C121.189 15.9586 121.333 16.0308 121.442 16.1752C121.586 16.2836 121.658 16.428 121.658 16.6085V21.862C121.658 22.0425 121.586 22.205 121.442 22.3494C121.333 22.4577 121.189 22.5119 121.008 22.5119H109.364C109.183 22.5119 109.093 22.6021 109.093 22.7827V31.5565C109.093 31.737 109.183 31.8273 109.364 31.8273H127.128C127.309 31.8273 127.453 31.8995 127.562 32.0439C127.706 32.1522 127.778 32.2967 127.778 32.4772V37.7306C127.778 37.9112 127.706 38.0736 127.562 38.2181C127.453 38.3264 127.309 38.3805 127.128 38.3805H102.107C101.926 38.3805 101.764 38.3264 101.619 38.2181C101.511 38.0736 101.457 37.9112 101.457 37.7306V1.11895C101.457 0.938421 101.511 0.793996 101.619 0.685677C101.764 0.541251 101.926 0.469038 102.107 0.469038H127.128C127.309 0.469038 127.453 0.541251 127.562 0.685677C127.706 0.793996 127.778 0.938421 127.778 1.11895V6.3724Z" fill="#1B1F23"/>
<path d="M136.822 38.5972C135.594 38.5972 134.565 38.2 133.735 37.4057C132.94 36.5752 132.543 35.5462 132.543 34.3186C132.543 33.0549 132.94 32.0259 133.735 31.2315C134.529 30.4372 135.558 30.04 136.822 30.04C138.086 30.04 139.115 30.4372 139.909 31.2315C140.703 32.0259 141.1 33.0549 141.1 34.3186C141.1 35.5462 140.685 36.5752 139.855 37.4057C139.06 38.2 138.05 38.5972 136.822 38.5972Z" fill="#1B1F23"/>
<path d="M177.849 10.5968C180.196 10.5968 182.02 11.2648 183.319 12.6007C184.655 13.9005 185.323 15.7239 185.323 18.0708C185.323 18.3597 185.287 18.9013 185.215 19.6956L182.994 37.839C182.922 38.2 182.724 38.3805 182.399 38.3805H179.799C179.474 38.3805 179.312 38.2 179.312 37.839L181.478 20.4538C181.514 20.2011 181.532 19.84 181.532 19.3706C181.532 17.7097 181.063 16.3919 180.124 15.417C179.185 14.4421 177.903 13.9547 176.279 13.9547C174.401 13.9547 172.831 14.5324 171.567 15.6878C170.303 16.8432 169.545 18.3958 169.292 20.3455L167.126 37.839C167.126 37.9834 167.072 38.1097 166.963 38.2181C166.855 38.3264 166.71 38.3805 166.53 38.3805H163.876C163.551 38.3805 163.389 38.2 163.389 37.839L165.555 20.4538C165.591 20.2011 165.609 19.822 165.609 19.3165C165.609 17.6556 165.14 16.3558 164.201 15.417C163.262 14.4421 161.981 13.9547 160.356 13.9547C158.514 13.9547 156.962 14.5324 155.698 15.6878C154.47 16.8432 153.73 18.3958 153.478 20.3455L151.311 37.839C151.311 37.9834 151.257 38.1097 151.149 38.2181C151.04 38.3264 150.896 38.3805 150.715 38.3805H148.062C147.737 38.3805 147.574 38.2 147.574 37.839L150.824 11.5175C150.896 11.1565 151.095 10.9759 151.42 10.9759H154.073C154.254 10.9759 154.38 11.0301 154.452 11.1384C154.561 11.2467 154.597 11.3731 154.561 11.5175L154.29 13.6839C154.29 13.7561 154.308 13.8103 154.344 13.8464C154.416 13.8464 154.489 13.8103 154.561 13.7381C155.463 12.691 156.547 11.9147 157.81 11.4092C159.074 10.8676 160.446 10.5968 161.926 10.5968C163.732 10.5968 165.23 10.9759 166.422 11.7342C167.649 12.4924 168.516 13.5936 169.021 15.0379C169.021 15.1101 169.039 15.1462 169.075 15.1462C169.148 15.1462 169.202 15.1101 169.238 15.0379C170.177 13.5575 171.404 12.4563 172.921 11.7342C174.437 10.9759 176.08 10.5968 177.849 10.5968Z" fill="#1B1F23"/>
<path d="M213.211 20.0747C213.211 21.4467 213.049 23.2882 212.724 25.599C212.724 25.7434 212.669 25.8697 212.561 25.9781C212.453 26.0864 212.308 26.1405 212.128 26.1405H195.176C195.032 26.1405 194.959 26.2128 194.959 26.3572C194.815 27.9459 194.743 28.9568 194.743 29.3901C194.743 31.2315 195.32 32.7119 196.476 33.8312C197.667 34.9144 199.328 35.4559 201.458 35.4559C202.975 35.4559 204.311 35.1129 205.466 34.4269C206.658 33.7409 207.651 32.766 208.445 31.5023C208.734 31.1774 208.987 31.1051 209.203 31.2857L211.099 32.5313C211.388 32.7119 211.424 32.9646 211.207 33.2896C210.124 35.0227 208.644 36.3947 206.766 37.4057C204.925 38.3805 202.849 38.868 200.538 38.868C198.046 38.8319 196.043 38.2181 194.526 37.0266C193.01 35.8351 191.999 34.1742 191.493 32.0439C191.277 31.1051 191.168 30.0581 191.168 28.9027C191.168 27.639 191.277 26.1947 191.493 24.5699C191.674 23.0174 191.854 21.7717 192.035 20.8329C192.215 19.8942 192.45 19.0457 192.739 18.2874C193.605 15.9405 195.032 14.063 197.017 12.6549C199.003 11.2467 201.278 10.5427 203.841 10.5427C207.019 10.5427 209.366 11.3731 210.882 13.034C212.399 14.6949 213.175 17.0418 213.211 20.0747ZM203.408 13.9005C201.711 13.9005 200.231 14.3699 198.967 15.3087C197.74 16.2113 196.837 17.439 196.259 18.9915C196.006 19.7136 195.718 20.9413 195.393 22.6744C195.393 22.8188 195.465 22.891 195.609 22.891H209.203C209.348 22.891 209.42 22.8188 209.42 22.6744C209.492 21.2301 209.528 20.3094 209.528 19.9122C209.528 18.1069 208.987 16.6627 207.903 15.5795C206.82 14.4602 205.322 13.9005 203.408 13.9005Z" fill="#1B1F23"/>
</svg>
