<svg width="21" height="20" viewBox="0 0 21 20" fill="none" xmlns="http://www.w3.org/2000/svg">
<path fill-rule="evenodd" clip-rule="evenodd" d="M9.66669 16.6667C9.66669 16.2065 10.0398 15.8334 10.5 15.8334H18C18.4603 15.8334 18.8334 16.2065 18.8334 16.6667C18.8334 17.1269 18.4603 17.5 18 17.5H10.5C10.0398 17.5 9.66669 17.1269 9.66669 16.6667Z" fill="white"/>
<path fill-rule="evenodd" clip-rule="evenodd" d="M15.5 3.23222C15.2521 3.23222 15.0145 3.33067 14.8392 3.50591L4.58578 13.7594L4.14528 15.5213L5.90727 15.0808L16.1607 4.8274C16.2475 4.74063 16.3163 4.63761 16.3633 4.52424C16.4102 4.41087 16.4344 4.28936 16.4344 4.16665C16.4344 4.04394 16.4102 3.92243 16.3633 3.80906C16.3163 3.69569 16.2475 3.59268 16.1607 3.50591C16.074 3.41914 15.9709 3.35031 15.8576 3.30335C15.7442 3.25639 15.6227 3.23222 15.5 3.23222ZM13.6607 2.3274C14.1485 1.8396 14.8101 1.56555 15.5 1.56555C15.8416 1.56555 16.1798 1.63283 16.4954 1.76355C16.811 1.89427 17.0977 2.08586 17.3392 2.3274C17.5808 2.56893 17.7724 2.85567 17.9031 3.17125C18.0338 3.48683 18.1011 3.82507 18.1011 4.16665C18.1011 4.50823 18.0338 4.84647 17.9031 5.16205C17.7724 5.47763 17.5808 5.76437 17.3392 6.00591L6.92257 16.4226C6.81577 16.5294 6.68195 16.6051 6.53542 16.6418L3.20209 17.4751C2.91811 17.5461 2.6177 17.4629 2.41072 17.2559C2.20374 17.0489 2.12053 16.7485 2.19152 16.4645L3.02486 13.1312C3.06149 12.9847 3.13726 12.8509 3.24405 12.7441L13.6607 2.3274Z" fill="white"/>
</svg>
